:SAMPLES-PER-SECOND 30
:FRAME-RANGE 1-2775
:FULLY-SPECIFIED
:DEGREES
2429
root  36.8796 38.935 -90.136 -6.93643 -76.5671 9.44299
RightUpLeg  -12.4519 -13.121 -2.57096
RightLeg  62.2986 -5.4816 -11.7305
RightFoot  2.97473 -0.533521 4.40744
RightToes  1.218e-010 1.26228e-014 -6.01869e-014
Spine  -4.88545 4.12706 2.89317
Spine1  9.61357 5.13113 -5.01875
HEad  1.58511 40.3777 -4.865
LeftShoulder1  0.393922 1.94396 -22.8897
LeftArm  -1.87296 9.64677 -55.4853
LeftForeArm  41.9869 6.47162 -13.2616
LeftHand  -0.0237934 5.84642 1.59215
RightShoulder  2.20021 3.11839 28.3363
RightArm  -24.8748 5.12863 54.9434
RightForeArm  83.2356 -4.69356 3.15461
RightHand  1.03553 -11.3936 -20.188
LeftUpLeg  -19.6268 -0.919003 -9.02618
LeftLeg  18.3638 18.8407 6.79788
LeftFoot  -3.63077 -0.468172 7.26246
LeftToes  5.08156e-010 -6.90346e-011 -6.33378e-011
2430
root  36.1192 38.8057 -90.2304 -7.18381 -72.4632 9.32283
RightUpLeg  -15.72 -9.9832 -3.36371
RightLeg  66.4975 -2.4274 -6.77918
RightFoot  -2.14784 -0.437081 5.24943
RightToes  1.218e-010 1.26228e-014 -6.01869e-014
Spine  -4.44881 4.02006 1.88429
Spine1  9.75964 4.91094 -5.2095
HEad  2.51117 37.2449 -4.31747
LeftShoulder1  0.533179 1.46744 -22.965
LeftArm  -0.978751 8.47934 -54.9201
LeftForeArm  41.9909 5.75609 -13.4272
LeftHand  -0.0244522 5.84191 1.4689
RightShoulder  2.415 3.77719 28.1927
RightArm  -22.8258 5.89382 54.8678
RightForeArm  82.7915 -4.92599 4.43761
RightHand  1.16953 -12.0526 -20.4863
LeftUpLeg  -18.8906 -2.44624 -9.74714
LeftLeg  20.4073 16.3577 6.85304
LeftFoot  -5.364 -0.306423 6.48192
LeftToes  5.08156e-010 -6.90346e-011 -6.33378e-011
2431
root  35.3232 38.7882 -90.3154 -6.74986 -68.6735 8.49135
RightUpLeg  -18.667 -6.6944 -3.95517
RightLeg  67.1006 -1.92073 -5.68105
RightFoot  -5.08892 -0.353489 5.83161
RightToes  1.218e-010 1.26228e-014 -6.01869e-014
Spine  -3.83048 3.97892 1.40946
Spine1  9.51656 4.83463 -5.41253
HEad  3.53993 34.3264 -3.86327
LeftShoulder1  0.675831 0.958259 -22.7372
LeftArm  -1.00513 7.28842 -54.6803
LeftForeArm  42.463 5.21079 -13.3279
LeftHand  -0.0204708 6.05498 1.81676
RightShoulder  2.44429 3.91491 27.9424
RightArm  -22.1275 7.21027 55.0803
RightForeArm  82.5236 -4.98528 4.72595
RightHand  1.17784 -11.9698 -20.8657
LeftUpLeg  -17.6202 -3.04611 -10.0151
LeftLeg  21.3676 13.5893 6.19595
LeftFoot  -6.73683 -0.194111 5.83341
LeftToes  5.08156e-010 -6.90346e-011 -6.33378e-011
2432
root  34.4976 38.8472 -90.3871 -5.89803 -64.8598 7.21632
RightUpLeg  -20.8052 -4.0001 -4.80502
RightLeg  64.2542 -3.2307 -7.86426
RightFoot  -7.06222 -0.259253 5.64779
RightToes  1.218e-010 1.26228e-014 -6.01869e-014
Spine  -3.43585 3.82526 1.18447
Spine1  9.2521 4.65335 -5.33124
HEad  4.365 31.6779 -3.53394
LeftShoulder1  0.711884 0.817551 -22.5476
LeftArm  -0.15689 6.12306 -54.1185
LeftForeArm  42.1119 3.69393 -13.4221
LeftHand  -0.0131511 6.42936 2.15034
RightShoulder  2.26953 3.42788 27.7801
RightArm  -20.7749 9.24209 55.3483
RightForeArm  82.345 -5.09021 5.31719
RightHand  1.18757 -12.0862 -20.681
LeftUpLeg  -15.9437 -3.36893 -9.83397
LeftLeg  21.4735 10.4695 5.11834
LeftFoot  -7.6628 -0.132173 5.5496
LeftToes  5.08156e-010 -6.90346e-011 -6.33378e-011
2433
root  33.673 38.9374 -90.4428 -4.90802 -60.8977 5.90587
RightUpLeg  -21.9542 -1.62482 -6.16329
RightLeg  58.4215 -5.63148 -10.2357
RightFoot  -9.40426 -0.153911 5.31912
RightToes  1.218e-010 1.26228e-014 -6.01869e-014
Spine  -3.34676 3.51981 1.17577
Spine1  8.93033 4.3721 -5.20427
HEad  5.01661 29.0705 -3.19962
LeftShoulder1  0.819353 0.410011 -22.2144
LeftArm  0.0980212 4.73887 -53.5764
LeftForeArm  41.3647 2.9147 -13.3803
LeftHand  -0.0127559 6.0728 2.88274
RightShoulder  2.25257 3.46536 27.3275
RightArm  -18.5864 11.3595 55.2071
RightForeArm  81.1599 -5.32657 6.45028
RightHand  1.14777 -12.1604 -19.8304
LeftUpLeg  -14.2216 -3.69959 -9.38741
LeftLeg  21.0659 7.27989 3.94783
LeftFoot  -8.34023 -0.0891791 5.31848
LeftToes  5.08156e-010 -6.90346e-011 -6.33378e-011
2434
root  32.8618 39.0742 -90.47 -4.03081 -57.1506 4.96796
RightUpLeg  -22.4631 1.22852 -8.10165
RightLeg  50.2588 -9.1728 -11.9503
RightFoot  -9.61783 -0.154545 5.92214
RightToes  1.218e-010 1.26228e-014 -6.01869e-014
Spine  -3.32663 3.28815 1.39229
Spine1  8.35983 4.22856 -5.08251
HEad  5.56001 26.3221 -3.14411
LeftShoulder1  0.876021 0.194595 -22.069
LeftArm  1.55796 3.04033 -52.8049
LeftForeArm  40.0815 1.90459 -13.6349
LeftHand  -0.0076552 6.15696 3.32254
RightShoulder  2.37196 4.00064 26.5026
RightArm  -15.7539 13.4731 54.4252
RightForeArm  77.7188 -5.7311 8.04722
RightHand  1.08343 -11.8895 -19.5358
LeftUpLeg  -12.5617 -4.12384 -8.83126
LeftLeg  20.1842 4.3217 2.88062
LeftFoot  -8.80322 -0.0613107 5.15741
LeftToes  5.08156e-010 -6.90346e-011 -6.33378e-011
2435
root  32.0583 39.1954 -90.4763 -3.39413 -53.7047 4.36516
RightUpLeg  -22.208 4.54182 -10.6467
RightLeg  40.6129 -11.6096 -10.7338
RightFoot  -8.37723 -0.216701 6.16676
RightToes  1.218e-010 1.26228e-014 -6.01869e-014
Spine  -3.3668 3.03736 1.76012
Spine1  7.88327 4.09703 -5.13516
HEad  5.81063 23.8429 -3.08983
LeftShoulder1  0.905564 0.053104 -21.7331
LeftArm  2.59621 1.51141 -52.3276
LeftForeArm  39.4063 0.988202 -13.7396
LeftHand  -0.00286514 6.11531 3.56866
RightShoulder  2.37234 4.19096 25.6496
RightArm  -14.1083 16.1094 53.9966
RightForeArm  75.9782 -5.90939 8.70833
RightHand  0.952636 -11.4686 -18.4737
LeftUpLeg  -11.1506 -5.04859 -8.26316
LeftLeg  19.5624 1.87686 2.15392
LeftFoot  -9.23978 -0.0310711 4.72428
LeftToes  5.08156e-010 -6.90346e-011 -6.33378e-011
